<svg width="24" height="25" viewBox="0 0 24 25" fill="none" xmlns="http://www.w3.org/2000/svg">
<path d="M0 2.6135C0 1.28802 1.07452 0.213501 2.4 0.213501H5.19494C6.52042 0.213501 7.59494 1.28802 7.59494 2.6135V5.40844C7.59494 6.73392 6.52042 7.80844 5.19494 7.80844H2.4C1.07452 7.80844 0 6.73392 0 5.40844L0 2.6135Z" fill="#1E1E1E"/>
<path d="M8.20253 2.6135C8.20253 1.28802 9.27705 0.213501 10.6025 0.213501L13.3975 0.213501C14.723 0.213501 15.7975 1.28802 15.7975 2.6135V5.40844C15.7975 6.73392 14.723 7.80844 13.3975 7.80844H10.6025C9.27705 7.80844 8.20253 6.73392 8.20253 5.40844V2.6135Z" fill="#13BE57"/>
<path d="M8.20253 10.816C8.20253 9.49055 9.27705 8.41603 10.6025 8.41603H13.3975C14.723 8.41603 15.7975 9.49055 15.7975 10.816V13.611C15.7975 14.9365 14.723 16.011 13.3975 16.011H10.6025C9.27705 16.011 8.20253 14.9365 8.20253 13.611V10.816Z" fill="#13BE57"/>
<path d="M8.20253 19.0186C8.20253 17.6931 9.27705 16.6186 10.6025 16.6186H13.3975C14.723 16.6186 15.7975 17.6931 15.7975 19.0186V21.8135C15.7975 23.139 14.723 24.2135 13.3975 24.2135H10.6025C9.27705 24.2135 8.20253 23.139 8.20253 21.8135V19.0186Z" fill="#1E1E1E"/>
<path d="M16.4051 2.6135C16.4051 1.28802 17.4796 0.213501 18.8051 0.213501L21.6 0.213501C22.9255 0.213501 24 1.28802 24 2.6135V5.40844C24 6.73392 22.9255 7.80844 21.6 7.80844H18.8051C17.4796 7.80844 16.4051 6.73392 16.4051 5.40844V2.6135Z" fill="#1E1E1E"/>
</svg>
