<svg width="23" height="26" viewBox="0 0 23 26" fill="none" xmlns="http://www.w3.org/2000/svg">
<path d="M19.6671 9.49038C20.2622 7.91713 20.2432 6.77994 19.5829 5.5936C18.8661 4.26449 17.2176 3.43467 14.9728 2.95752L8.5292 1.58789C8.07192 1.4907 7.62687 1.74476 7.44623 2.18578L1.11008 18.7081C0.997605 19.0328 1.18499 19.3777 1.51756 19.4484L5.50841 20.2967L4.84515 21.9862C4.74153 22.2693 4.89621 22.5636 5.22878 22.6343L8.59606 23.3501C9.01177 23.4384 9.40639 23.2172 9.52773 22.8508L11.174 18.5809C11.2953 18.2144 11.7315 18.0021 12.1056 18.0816L12.6045 18.1876C15.8471 18.8769 18.7081 18.0903 20.2718 14.4131C20.8996 12.8904 21.0674 11.4878 20.431 10.3937C20.2436 10.0488 19.9969 9.7784 19.6671 9.49038Z" fill="#009CDE"/>
<path d="M19.6671 9.49038C20.2622 7.91713 20.2432 6.77994 19.5829 5.5936C18.8661 4.26449 17.2176 3.43467 14.9728 2.95752L8.5292 1.58789C8.07191 1.4907 7.62687 1.74476 7.44622 2.18578L1.11008 18.7081C0.997605 19.0328 1.18499 19.3777 1.51756 19.4484L5.50841 20.2967L7.77634 14.3285C7.95698 13.8874 8.40203 13.6334 8.85931 13.7306L10.7716 14.137C14.513 14.9323 17.7421 14.0497 19.513 9.8063C19.5723 9.73174 19.5989 9.60664 19.6671 9.49038Z" fill="#012169"/>
<path d="M10.3878 7.56159C10.4914 7.27854 10.9453 6.98277 11.3195 7.0623L16.3912 8.14032C16.9732 8.26403 17.5463 8.42944 18.0275 8.61887C18.467 8.79947 19.2541 9.18469 19.6167 9.52324C20.2118 7.95 20.1928 6.8128 19.5325 5.62646C18.8661 4.26449 17.2176 3.43467 14.9728 2.95752L8.5292 1.58789C8.07192 1.4907 7.62687 1.74476 7.44623 2.18578L1.11008 18.7081C0.997605 19.0328 1.18499 19.3777 1.51756 19.4484L5.50841 20.2967L10.3878 7.56159Z" fill="#003087"/>
</svg>
