<svg width="28" height="13" viewBox="0 0 28 13" fill="none" xmlns="http://www.w3.org/2000/svg">
<path d="M24.5194 0.372034L27.9642 8.17157L26.0053 8.58795C25.8545 8.26288 25.7172 7.91856 25.5663 7.5935C25.4154 7.26843 25.53 7.42265 25.3279 7.46561L22.9503 7.97098C22.9238 7.97198 22.8977 7.97853 22.8738 7.99019C22.85 8.00185 22.8288 8.01837 22.8117 8.03869C22.7946 8.05902 22.7819 8.08269 22.7745 8.1082C22.767 8.13371 22.765 8.16049 22.7685 8.18682C22.7255 8.52311 22.6833 8.85652 22.622 9.17761C22.5595 9.49897 22.5421 9.34044 22.4952 9.35042L20.398 9.79618L20.3584 9.60968C20.8727 6.93315 21.3855 4.25193 21.897 1.56602C21.9224 1.38553 22.001 1.21668 22.1226 1.0809C22.2442 0.945109 22.4034 0.848506 22.58 0.803345C23.2567 0.626783 23.8822 0.510201 24.5199 0.374643M23.5452 2.97138L23.0717 6.17584L24.8128 5.80576L23.5452 2.97138ZM6.68791 9.96367L6.64827 9.77717C6.90361 7.91948 7.1733 6.05875 7.413 4.20439C7.38334 4.06484 7.49523 3.97563 7.65043 3.94264L9.71758 3.50325L9.76055 3.7054L8.1953 12.1623C8.19372 12.23 8.16682 12.2946 8.11992 12.3435C8.07301 12.3923 8.00951 12.4218 7.94194 12.4261L6.13954 12.8092C5.98304 12.8425 5.92174 12.8555 5.83182 12.6633C4.78227 10.5473 3.71447 8.43515 2.66029 6.30375C2.60754 6.19335 2.51354 6.10808 2.39853 6.06631C1.72756 5.85904 1.03533 5.72816 0.33499 5.67615C0.33499 5.67615 0.208804 5.62119 0.155477 5.60117C0.217934 5.56939 0.287644 5.55457 0.357628 5.5582L3.46683 4.89732C3.5925 4.84997 3.72675 4.8297 3.86079 4.83784C3.99484 4.84598 4.12565 4.88235 4.24466 4.94457C4.36367 5.00678 4.4682 5.09344 4.55138 5.19886C4.63457 5.30428 4.69455 5.42609 4.72739 5.5563L6.582 9.92075C6.58459 9.95818 6.59243 9.99506 6.60529 10.0303L6.68791 9.96367ZM14.4204 10.7246L14.3454 8.83901L14.5898 8.91791C15.4709 9.15938 16.408 9.09198 17.2455 8.72693C17.4098 8.67703 17.5545 8.57719 17.6595 8.44129C17.7645 8.30538 17.8245 8.14016 17.8313 7.96857C17.8135 7.80255 17.7424 7.64677 17.6287 7.5245C17.515 7.40223 17.3647 7.32005 17.2005 7.29023C16.8458 7.15433 16.4724 7.07149 16.1334 6.93227C15.7045 6.80014 15.2941 6.61442 14.9118 6.37951C14.5071 6.06215 14.2269 5.61271 14.12 5.10972C14.0131 4.60672 14.0863 4.08215 14.3268 3.62765C14.6863 3.01692 15.2224 2.52943 15.8644 2.22942C16.8385 1.75295 17.9322 1.57693 19.0066 1.72374L19.0848 1.70711L19.1456 3.44854C18.7277 3.41211 18.3079 3.40388 17.889 3.42392C17.4786 3.47835 17.0731 3.56455 16.6761 3.68173C16.5366 3.74194 16.4172 3.84061 16.3317 3.96622C16.2894 4.02129 16.2595 4.0849 16.2441 4.15265C16.2287 4.2204 16.2282 4.29068 16.2427 4.35863C16.2571 4.42659 16.2862 4.4906 16.3278 4.54624C16.3693 4.60188 16.4225 4.64783 16.4836 4.68092C16.7061 4.81265 16.9398 4.92019 17.1847 5.00354C17.6417 5.1654 18.1046 5.27829 18.5495 5.46043C18.9128 5.58864 19.2378 5.80656 19.4943 6.09394C19.7509 6.38133 19.9307 6.72888 20.017 7.10432C20.1033 7.47976 20.0934 7.87092 19.9881 8.2415C19.8829 8.61209 19.6857 8.95007 19.4149 9.22408C18.8973 9.83595 18.2145 10.2858 17.448 10.52C16.4719 10.8407 15.4308 10.9111 14.4204 10.7246ZM11.0355 11.7685L10.6378 3.32402L12.7675 2.87133L13.1653 11.3158L11.0355 11.7685Z" fill="#0742A6"/>
</svg>
